<!--?xml version="1.0" encoding="utf-8"?-->
<!-- Generator: Adobe Illustrator 18.1.1, SVG Export Plug-In . SVG Version: 6.00 Build 0)  -->

<svg version="1.1" id="_x31_0" xmlns="http://www.w3.org/2000/svg" xmlns:xlink="http://www.w3.org/1999/xlink" x="0px" y="0px" viewBox="0 0 512 512" style="width: 256px; height: 256px; opacity: 1;" xml:space="preserve">
<style type="text/css">
	.st0{fill:#374149;}
</style>
<g>
	<path class="st0" d="M256,0C114.614,0,0,114.614,0,256c0,141.383,114.614,256,256,256c141.383,0,256-114.617,256-256
		C512,114.614,397.383,0,256,0z M256,448c-105.871,0-192-86.133-192-192c0-105.871,86.129-192,192-192c105.867,0,192,86.129,192,192
		C448,361.867,361.867,448,256,448z" style="fill: rgb(75, 75, 75);"></path>
	<path class="st0" d="M240.742,278.531c8.297,8.297,22.148,8.297,30.445,0l56.672-56.672c8.473-8.473,8.473-22.262,0-30.734
		c-8.363-8.363-22.371-8.371-30.734,0l-11.422,11.418l-4.738,4.71l-3.27,3.098v-78.05c0-11.828-9.906-21.734-21.73-21.734
		c-11.828,0-21.734,9.906-21.734,21.734v41.84l-0.019,21.378l-0.126,14.887l-19.281-19.282c-8.527-8.531-22.805-8.328-31.114,0.398
		c-8.023,8.426-7.851,22.11,0.379,30.336L240.742,278.531z" style="fill: rgb(75, 75, 75);"></path>
	<path class="st0" d="M368.871,294.371h-23.668c-5.02,0-9.066,4.043-9.066,9.066v15.668c0,5.023-4.09,9.066-9.114,9.066H184.977
		c-5.024,0-9.07-4.043-9.07-9.066v-15.668c0-5.023-4.09-9.066-9.114-9.066h-23.621c-5.02,0-9.11,4.043-9.11,9.066v57.469
		c0,5.023,4.09,9.113,9.11,9.113h225.699c5.019,0,9.066-4.09,9.066-9.113v-57.469C377.938,298.414,373.89,294.371,368.871,294.371z" style="fill: rgb(75, 75, 75);"></path>
</g>
</svg>
